<?xml version="1.0" ?>
<svg id="Capa_1" style="enable-background:new 0 0 511.998 511.998;" version="1.1" viewBox="0 0 511.998 511.998" xml:space="preserve" xmlns="http://www.w3.org/2000/svg" xmlns:xlink="http://www.w3.org/1999/xlink">
    <g>
        <polygon points="256,69.998 296,54.999 336,39.999 296,24.999 256,9.999 256,39.999  " style="fill:#54BA9D;"/>
        <g>
            <polygon points="216,141.995 10,141.995 10,221.995 135.998,221.995 196,161.996   " style="fill:#4B0082;"/>
            <polygon points="315.997,161.996 375.998,221.995 501.998,221.995 501.998,141.995 295.998,141.995   " style="fill:#4B0082;"/>
        </g>
        <path d="M375.998,221.995l-60.001-59.999l-19.999-20.001L256,101.997l-40,39.998l-20,20.001l-60.002,59.999   H10v280.003h186V462v-60.002c0-11.003,8.996-19.999,20-19.999h40h40c11,0,19.997,8.996,19.997,19.999V462v39.998h186.001V221.995   H375.998L375.998,221.995z M315.997,281.997H356v40h-40.003V281.997L315.997,281.997z M155.998,281.997H196v40h-40.002V281.997   L155.998,281.997z M256,187.308c16.566,0,29.998,13.432,29.998,30c0,16.567-13.432,29.999-29.998,29.999   c-16.569,0-30.001-13.432-30.001-29.999C225.999,200.739,239.431,187.308,256,187.308L256,187.308z M421.996,391.999h40.003v40   h-40.003V391.999L421.996,391.999z M421.996,281.997h40.003v40h-40.003V281.997L421.996,281.997z M49.998,391.999H90v40H49.998   V391.999L49.998,391.999z M49.998,281.997H90v40H49.998V281.997z" style="fill:#FFDAAE;"/>
        <circle cx="256" cy="217.31" r="30" style="fill:#FF9D21;"/>
        <g>
            <rect height="40" style="fill:#96C8EB;" width="40" x="49.998" y="282"/>
            <rect height="40" style="fill:#96C8EB;" width="40" x="156" y="282"/>
            <rect height="40" style="fill:#96C8EB;" width="40" x="316" y="282"/>
            <rect height="40" style="fill:#96C8EB;" width="40" x="422" y="282"/>
            <rect height="40" style="fill:#96C8EB;" width="40" x="422" y="392"/>
        </g>
        <g>
            <path d="M315.997,462v-60.002c0-11.003-8.997-19.999-19.997-19.999h-40v119.999h59.997V462z" style="fill:#986E62;"/>
            <path d="M256,501.998V381.999h-40c-11.004,0-20,8.996-20,19.999V462v39.998H256z" style="fill:#986E62;"/>
        </g>
        <rect height="40" style="fill:#96C8EB;" width="40" x="49.998" y="392"/>
    </g>
    <g>
        <path d="M501.998,131.995H300.141L266,97.854V76.928l73.512-27.565C343.415,47.899,346,44.168,346,40   s-2.586-7.899-6.488-9.363L259.51,0.638c-3.07-1.152-6.512-0.726-9.207,1.144C247.607,3.649,246,6.721,246,10.001v59.997v27.856   l-34.143,34.141H10c-5.523,0-10,4.477-10,10v80v280.003c0,5.522,4.477,10,10,10h186h119.997h186.001c5.523,0,10-4.478,10-10   V221.995v-80C511.998,136.472,507.521,131.995,501.998,131.995z M491.998,151.995v20h-17.017c-5.522,0-10,4.478-10,10   c0,5.523,4.478,10,10,10h17.017v20H380.141l-60-60H491.998z M266,24.43l41.521,15.569L266,55.569V24.43z M191.857,151.995   l-60.001,60H20v-20h17.016c5.523,0,10-4.477,10-10c0-5.522-4.477-10-10-10H20v-20H191.857z M206,401.998   c0-5.514,4.486-9.999,10-9.999h30v99.999h-40V401.998z M266,491.998v-99.999h30c5.512,0,9.997,4.485,9.997,9.999v90H266z    M491.998,491.998H325.997V472h17.017c5.522,0,10-4.478,10-10s-4.478-10-10-10h-17.017v-50.002   c0-16.542-13.456-29.999-29.997-29.999h-80c-16.543,0-30,13.457-30,29.999V452h-17.016c-5.523,0-10,4.478-10,10s4.477,10,10,10H186   v19.998H20V231.995h115.998c2.652,0,5.196-1.054,7.071-2.929L256,116.139l32.924,32.925c0.002,0.002,0.004,0.004,0.006,0.006   l79.998,79.997c1.875,1.875,4.419,2.929,7.07,2.929h116L491.998,491.998L491.998,491.998z" style="fill:#000001;"/>
        <path d="M256,177.308c-22.056,0-39.999,17.944-39.999,40s17.943,39.999,39.999,39.999   c22.057,0,40-17.943,40-39.999S278.057,177.308,256,177.308z M256,237.307c-11.027,0-19.999-8.972-19.999-19.999   c0-11.028,8.972-20,19.999-20c11.028,0,20,8.972,20,20C276,228.335,267.028,237.307,256,237.307z" style="fill:#000001;"/>
        <path d="M90,271.997H49.998c-5.523,0-10,4.478-10,10v40c0,5.522,4.477,10,10,10H90c5.523,0,10-4.478,10-10   v-40C100,276.475,95.523,271.997,90,271.997z M80,311.997H59.998v-20H80V311.997z" style="fill:#000001;"/>
        <path d="M196,271.997h-40.002c-5.523,0-10,4.478-10,10v40c0,5.522,4.477,10,10,10H196   c5.523,0,10-4.478,10-10v-40C206,276.475,201.523,271.997,196,271.997z M186,311.997h-20.002v-20H186V311.997z" style="fill:#000001;"/>
        <path d="M90,381.999H49.998c-5.523,0-10,4.478-10,10v40c0,5.523,4.477,10,10,10H90c5.523,0,10-4.477,10-10   v-40C100,386.477,95.523,381.999,90,381.999z M80,421.999H59.998v-20H80V421.999z" style="fill:#000001;"/>
        <path d="M421.996,331.997h40.003c5.522,0,10-4.478,10-10v-40c0-5.522-4.478-10-10-10h-40.003   c-5.522,0-10,4.478-10,10v40C411.996,327.519,416.474,331.997,421.996,331.997z M431.996,291.997h20.003v20h-20.003V291.997z" style="fill:#000001;"/>
        <path d="M366,321.997v-40c0-5.522-4.478-10-10-10h-40.003c-5.522,0-10,4.478-10,10v40   c0,5.522,4.478,10,10,10H356C361.522,331.997,366,327.519,366,321.997z M346,311.997h-20.003v-20H346V311.997z" style="fill:#000001;"/>
        <path d="M421.996,441.999h40.003c5.522,0,10-4.477,10-10v-40c0-5.522-4.478-10-10-10h-40.003   c-5.522,0-10,4.478-10,10v40C411.996,437.521,416.474,441.999,421.996,441.999z M431.996,401.999h20.003v20h-20.003V401.999z" style="fill:#000001;"/>
        <path d="M371.744,452c-5.522,0-10,4.478-10,10s4.478,10,10,10h0.236c5.523,0,10-4.478,10-10s-4.477-10-10-10   H371.744z" style="fill:#000001;"/>
        <path d="M140.252,452h-0.235c-5.523,0-10,4.478-10,10s4.477,10,10,10h0.235c5.523,0,10-4.478,10-10   S145.775,452,140.252,452z" style="fill:#000001;"/>
        <path d="M65.745,191.995h0.237c5.523,0,10-4.477,10-10c0-5.522-4.477-10-10-10h-0.237   c-5.523,0-10,4.478-10,10C55.745,187.518,60.223,191.995,65.745,191.995z" style="fill:#000001;"/>
        <path d="M446.016,191.995h0.236c5.523,0,10-4.477,10-10c0-5.522-4.477-10-10-10h-0.236   c-5.522,0-10,4.478-10,10C436.016,187.518,440.493,191.995,446.016,191.995z" style="fill:#000001;"/>
    </g>
</svg>