<?xml version="1.0" encoding="UTF-8"?>
<svg id="b" xmlns="http://www.w3.org/2000/svg" width="341.283" height="149.526" viewBox="0 0 341.283 149.526">
	<defs>
		<!-- <style>
            .d {
                fill:#cfcfcf;
            }
            .d,.e,.f,.g,.h {
                stroke-width:0px;
            }
            .e {
                fill:#211715;
            }
            .f {
                fill:#645d5c;
            }
            .g {
                fill:#fff;
            }
            .h {
                fill:#74c66d;
            }
        </style> -->
	</defs>
	<g id="c">
		<path class="g" d="M339.268,18.915c0-4.418-3.582-8-8-8H28.208c-7.196,0-13.497,5.014-14.929,12.066-3.782,18.633-7.349,39.071-10.678,60.93-1.516,9.956-.292,16.725,2.478,26.73h334.189V18.915Z"/>
		<path class="g" d="M125.785,6.788l.7,4.13h-61.44l.74-4.14c.62-3.11,2.14-4.74,4.76-4.74h50.51c2.62,0,4.44,1.82,4.73,4.75Z"/>
		<path class="h" d="M320.043,78.557c-101.437,0-202.858,0-304.29.002.027-.114.05-.229.069-.344,1.531-9.188,2.653-16.251,3.685-22.652,106.585.004,213.171.004,319.756.004v22.99c-6.407,0-12.814,0-19.221,0Z"/>
		<path class="e" d="M339.264,76.561H15.754c-2.574,0-2.578,4,0,4h323.51c2.574,0,2.578-4,0-4h0Z"/>
		<path class="e" d="M339.264,53.561H19.514c-2.574,0-2.578,4,0,4h319.75c2.574,0,2.578-4,0-4h0Z"/>
		<path class="g" d="M50.308,110.803c10.497,0,20.423,0,28.626,0,.552,0,.992-.448.992-1.001-.002-26.014-.002-47.861-.002-60.5,0-4.418-3.582-7.992-8-7.992h-14.62c-4.418,0-8,3.582-8,8v60.492c0,.552.452,1,1.004,1Z"/>
		<path class="g" d="M172.554,41.311h-45.25c-4.418,0-8,3.582-8,8v60.49c0,.552.44,1,.992,1,9.093,0,52.149.001,59.262.002.552,0,.996-.448.996-1v-60.492c0-4.418-3.582-8-8-8Z"/>
		<path class="e" d="M339.264,19.561H25.934c-2.574,0-2.578,4,0,4h313.33c2.574,0,2.578-4,0-4h0Z"/>
		<path class="d" d="M136.617,52.018h-4c-2.209,0-4,1.791-4,4v25.805c0,.552.448,1,1,1h10c.552,0,1-.448,1-1v-25.804c0-2.209-1.791-4-4-4Z"/>
		<path class="d" d="M166.619,52.018h-4c-2.209,0-4,1.791-4,4v25.805c0,.552.448,1,1,1h10c.552,0,1-.448,1-1v-25.804c0-2.209-1.791-4-4-4Z"/>
		<path class="d" d="M66.612,52.018h-4c-2.209,0-4,1.791-4,4v25.805c0,.552.448,1,1,1h10c.552,0,1-.448,1-1v-25.804c0-2.209-1.791-4-4-4Z"/>
		<path class="d" d="M226.383,47.311h68.569c5.108,0,9.249,4.141,9.249,9.249,0,8.012,0,16.023,0,24.035,0,4.512-3.652,8.169-8.164,8.169-16.321,0-52.934,0-70.741,0-4.512,0-8.161-3.657-8.161-8.169v-24.035c0-5.108,4.141-9.249,9.249-9.249Z"/>
		<path class="f" d="M275.768,123.517c5.705,0,11.635,3.213,11.635,12.204-.256,8.393-6.078,11.796-12.585,11.796-4.752,0-11.415-3.241-11.415-12.423,0-9.031,7.404-11.577,12.365-11.577Z"/>
		<path class="f" d="M320.006,123.517c5.705,0,11.635,3.213,11.635,12.204-.256,8.393-6.078,11.796-12.585,11.796-4.752,0-11.415-3.241-11.415-12.423,0-9.031,7.404-11.577,12.365-11.577Z"/>
		<path class="e" d="M275.768,125.517c4.065.034,7.852,2.005,9.099,6.195,1.377,4.627.215,10.221-4.314,12.574-1.856.965-4.065,1.304-6.141,1.223-1.47-.058-3.146-.535-4.573-1.397-4.067-2.458-5.314-8.036-3.952-12.432,1.353-4.367,5.907-6.135,9.88-6.163,2.573-.018,2.579-4.018,0-4-5.086.036-10.503,2.266-12.889,7.011-2.8,5.567-1.74,13.595,3.131,17.717,4.073,3.446,9.91,4.148,14.854,2.249,2.787-1.07,5.192-2.913,6.679-5.539,1.742-3.077,2.13-6.734,1.631-10.187-.496-3.431-2.134-6.565-4.935-8.654-2.429-1.811-5.473-2.572-8.47-2.597-2.575-.021-2.577,3.979,0,4Z"/>
		<path class="e" d="M320.006,125.517c4.065.034,7.852,2.005,9.099,6.195,1.377,4.627.215,10.221-4.314,12.574-1.856.965-4.065,1.304-6.141,1.223-1.47-.058-3.146-.535-4.573-1.397-4.067-2.458-5.314-8.036-3.952-12.432,1.353-4.367,5.907-6.135,9.88-6.163,2.573-.018,2.579-4.018,0-4-5.086.036-10.503,2.266-12.889,7.011-2.8,5.567-1.74,13.595,3.131,17.717,4.073,3.446,9.91,4.148,14.854,2.249,2.787-1.07,5.192-2.913,6.679-5.539,1.742-3.077,2.13-6.734,1.631-10.187-.496-3.431-2.134-6.565-4.935-8.654-2.429-1.811-5.473-2.572-8.47-2.597-2.575-.021-2.577,3.979,0,4Z"/>
		<path class="e" d="M279.199,137.247h39.5c2.574,0,2.578-4,0-4h-39.5c-2.574,0-2.578,4,0,4h0Z"/>
		<path class="f" d="M35.753,123.517c5.705,0,11.635,3.213,11.635,12.204-.256,8.393-6.078,11.796-12.585,11.796-4.752,0-11.415-3.241-11.415-12.423,0-9.031,7.404-11.577,12.365-11.577Z"/>
		<path class="f" d="M79.991,123.517c5.705,0,11.635,3.213,11.635,12.204-.256,8.393-6.078,11.796-12.585,11.796-4.752,0-11.415-3.241-11.415-12.423,0-9.031,7.404-11.577,12.365-11.577Z"/>
		<path class="e" d="M35.753,125.517c4.065.034,7.852,2.005,9.099,6.195,1.377,4.627.215,10.221-4.314,12.574-1.856.965-4.065,1.304-6.141,1.223-1.47-.058-3.146-.535-4.573-1.397-4.067-2.458-5.314-8.036-3.952-12.432,1.353-4.367,5.907-6.135,9.88-6.163,2.573-.018,2.579-4.018,0-4-5.086.036-10.503,2.266-12.889,7.011-2.8,5.567-1.74,13.595,3.131,17.717,4.073,3.446,9.91,4.148,14.854,2.249,2.787-1.07,5.192-2.913,6.679-5.539,1.742-3.077,2.13-6.734,1.631-10.187-.496-3.431-2.134-6.565-4.935-8.654-2.429-1.811-5.473-2.572-8.47-2.597-2.575-.021-2.577,3.979,0,4Z"/>
		<path class="e" d="M79.991,125.517c4.065.034,7.852,2.005,9.099,6.195,1.377,4.627.215,10.221-4.314,12.574-1.856.965-4.065,1.304-6.141,1.223-1.47-.058-3.146-.535-4.573-1.397-4.067-2.458-5.314-8.036-3.952-12.432,1.353-4.367,5.907-6.135,9.88-6.163,2.573-.018,2.579-4.018,0-4-5.086.036-10.503,2.266-12.889,7.011-2.8,5.567-1.74,13.595,3.131,17.717,4.073,3.446,9.91,4.148,14.854,2.249,2.787-1.07,5.192-2.913,6.679-5.539,1.742-3.077,2.13-6.734,1.631-10.187-.496-3.431-2.134-6.565-4.935-8.654-2.429-1.811-5.473-2.572-8.47-2.597-2.575-.021-2.577,3.979,0,4Z"/>
		<path class="e" d="M39.184,137.247h39.5c2.574,0,2.578-4,0-4h-39.5c-2.574,0-2.578,4,0,4h0Z"/>
		<path class="e" d="M155.934,131.247v8.333c0,1.081.916,2,2,2,15.986,0,31.971,0,47.957,0,10.843,0,21.686,0,32.53,0,1.948,0,3.895,0,5.843,0,1.081,0,2-.916,2-2v-8.333c0-2.574-4-2.578-4,0v8.333l2-2c-5.749,0-11.499,0-17.248,0-13.694,0-27.388,0-41.083,0-9.333,0-18.666,0-27.999,0l2,2v-8.333c0-2.574-4-2.578-4,0h0Z"/>
		<path class="e" d="M98.934,133.247h155.667c2.574,0,2.578-4,0-4H98.934c-2.574,0-2.578,4,0,4h0Z"/>
		<path class="f" d="M339.264,110.639v9.4c0,4.41-3.58,8-8,8-144.82-.01-288.12-.01-315.69-.01-2.81,0-5.27-1.88-6.02-4.58l-3.56-12.81h333.27Z"/>
		<path class="e" d="M5.994,112.641h333.27c2.574,0,2.578-4,0-4H5.994c-2.574,0-2.578,4,0,4h0Z"/>
		<path class="e" d="M172.554,39.311h-22.001c-7.731,0-15.474-.13-23.203,0-5.805.098-10.028,4.729-10.045,10.431-.008,2.625,0,5.251,0,7.876v30.938c0,6.999-.265,14.056,0,21.051.031.805.21,1.585.776,2.199.966,1.047,2.258.995,3.553.995,1.965,0,3.93,0,5.895,0,5.89,0,11.78,0,17.67,0,10.925,0,21.85,0,32.775.001.782,0,1.674.095,2.431-.122,1.345-.385,2.078-1.626,2.149-2.954.036-.684,0-1.38,0-2.064v-10.633c0-10.604,0-21.208,0-31.813v-12.16c0-2.666.216-5.367-.903-7.868-1.609-3.594-5.202-5.794-9.097-5.877-2.575-.055-2.575,3.945,0,4,3.32.071,5.942,2.671,6,6.001.008.456,0,.912,0,1.367v9.282c0,10.126,0,20.253,0,30.379v13.108c0,1.405,0,2.81,0,4.214,0,.594-.166,1.466,0,2.043.008.029-.011.069,0,.097-.822-1.985,1.612-.825.649-.999-.141-.026-.316,0-.459,0-.703,0-1.407,0-2.11,0-2.083,0-4.166,0-6.249,0-5.734,0-11.468,0-17.202,0-10.606,0-21.212,0-31.818,0-.236,0-.685-.088-.906,0-.35.139.685,1.431.846.913.057-.183,0-.482,0-.671v-56.723c0-2.471-.274-5.018,1.533-7.019,2.155-2.386,5.242-1.99,8.125-1.99h41.592c2.574,0,2.578-4,0-4Z"/>
		<path class="e" d="M151.934,110.641V41.911c0-2.574-4-2.578-4,0v68.73c0,2.574,4,2.578,4,0h0Z"/>
		<path class="e" d="M50.308,112.803c6.039,0,12.079,0,18.118,0,2.706,0,5.412,0,8.118,0,1.234,0,2.737.239,3.851-.395,1.386-.789,1.531-2.146,1.531-3.598,0-11.424-.001-22.849-.002-34.273,0-8.208,0-16.415,0-24.623,0-4.577-2.492-8.678-6.972-10.133-2.188-.71-4.696-.47-6.967-.47h-8.759c-2.821,0-5.493.196-7.863,1.973-2.621,1.965-4.038,4.963-4.059,8.221-.006.978,0,1.955,0,2.933v48.968c0,2.75-.137,5.54,0,8.287.073,1.471.939,2.791,2.473,3.038,1.065.172,2.152-.275,2.46-1.397.262-.953-.324-2.287-1.397-2.46,2.02.325.326,1.312.464.819.026-.094-.006-.225,0-.322.026-.408,0-.827,0-1.235v-51.98c0-2.269-.039-4.542,0-6.81.055-3.147,2.445-5.855,5.653-6.027,1.806-.097,3.638-.007,5.445-.007h8.096c2.346,0,4.575.267,6.15,2.28,1.137,1.453,1.276,3.051,1.276,4.822,0,1.577,0,3.155,0,4.732,0,3.894,0,7.788,0,11.682,0,9.984,0,19.967.001,29.951,0,2.784,0,5.567,0,8.351,0,.36-.162,4.129,0,4.179l.616-.503h-.394c-.282-.078-.7,0-.998,0-.68,0-1.36,0-2.041,0-5.323,0-10.647,0-15.97,0-2.944,0-5.887,0-8.831,0-2.574,0-2.578,4,0,4Z"/>
		<path class="e" d="M66.974,11.447c.247-1.374.467-2.755.743-4.124.203-1.006.502-2.326,1.415-2.935,1.022-.681,2.711-.35,3.864-.35,7.118,0,14.236,0,21.354,0,8.351,0,16.702,0,25.053,0,1.928,0,3.705-.031,4.279,2.232.426,1.678.59,3.468.88,5.176.181,1.066,1.494,1.662,2.46,1.397,1.129-.31,1.578-1.391,1.397-2.46l-.39-2.304c-.076-.45-.152-.899-.229-1.349-.021-.123-.043-.245-.062-.368-.006-.037-.03-.192-.004-.016.024.159-.067-.507-.089-.629-.597-3.32-3.235-5.586-6.589-5.679-3.133-.087-6.282,0-9.416,0-12.72,0-25.44,0-38.16,0-2.012,0-4.158-.238-6.01.71-1.487.761-2.467,2.142-3.067,3.664-.739,1.877-.93,3.996-1.285,5.971-.191,1.062.289,2.156,1.397,2.46.969.266,2.268-.328,2.46-1.397h0Z"/>
		<path class="e" d="M136.617,50.018c-1.324,0-2.657-.051-3.98,0-2.787.107-5.355,1.948-5.891,4.786-.356,1.885-.129,3.969-.129,5.871v19.795c0,.624-.049,1.267.071,1.884.422,2.165,2.281,2.468,4.098,2.468,2.911,0,5.875.171,8.78,0,3.416-.2,3.051-3.421,3.051-5.845v-20.954c0-.666.025-1.337,0-2.002-.124-3.363-2.647-5.861-6-6.003-2.574-.109-2.569,3.891,0,4,2.349.1,2,2.584,2,4.222v21.785c0,.469-.167,1.299,0,1.747-.286-.765,1.654-.812.682-.949-.505-.071-1.069,0-1.579,0h-4.794c-.657,0-1.314,0-1.971,0-.353,0-.929-.111-1.268,0-.139.045.766,1.499.93.801.053-.224,0-.535,0-.764v-17.4c0-2.396-.027-4.794,0-7.19.034-3.056,3.933-2.251,6-2.251,2.574,0,2.578-4,0-4Z"/>
		<path class="e" d="M166.619,50.018c-1.324,0-2.657-.051-3.98,0-2.787.107-5.355,1.948-5.891,4.786-.356,1.885-.129,3.969-.129,5.871v19.795c0,.624-.049,1.267.071,1.884.422,2.165,2.281,2.468,4.098,2.468,2.911,0,5.875.171,8.78,0,3.416-.2,3.051-3.421,3.051-5.845v-20.954c0-.666.025-1.337,0-2.002-.124-3.363-2.647-5.861-6-6.003-2.574-.109-2.569,3.891,0,4,2.349.1,2,2.584,2,4.222v21.785c0,.469-.167,1.299,0,1.747-.286-.765,1.654-.812.682-.949-.505-.071-1.069,0-1.579,0h-4.794c-.657,0-1.314,0-1.971,0-.353,0-.929-.111-1.268,0-.139.045.766,1.499.93.801.053-.224,0-.535,0-.764v-17.4c0-2.396-.027-4.794,0-7.19.034-3.056,3.933-2.251,6-2.251,2.574,0,2.578-4,0-4Z"/>
		<path class="e" d="M66.612,50.018c-1.324,0-2.657-.051-3.98,0-2.787.107-5.355,1.948-5.891,4.786-.356,1.885-.129,3.969-.129,5.871v19.795c0,.624-.049,1.267.071,1.884.422,2.165,2.281,2.468,4.098,2.468,2.911,0,5.875.171,8.78,0,3.416-.2,3.051-3.421,3.051-5.845v-20.954c0-.666.025-1.337,0-2.002-.124-3.363-2.647-5.861-6-6.003-2.574-.109-2.569,3.891,0,4,2.349.1,2,2.584,2,4.222v21.785c0,.469-.167,1.299,0,1.747-.286-.765,1.654-.812.682-.949-.505-.071-1.069,0-1.579,0h-4.794c-.657,0-1.314,0-1.971,0-.353,0-.929-.111-1.268,0-.139.045.766,1.499.93.801.053-.224,0-.535,0-.764v-17.4c0-2.396-.027-4.794,0-7.19.034-3.056,3.933-2.251,6-2.251,2.574,0,2.578-4,0-4Z"/>
		<path class="e" d="M226.383,49.311h67.245c1.788,0,3.467.078,5.076,1.045,2.051,1.234,3.386,3.465,3.491,5.857.168,3.86.006,7.765.006,11.628,0,3.761,0,7.521,0,11.282,0,2.656-.381,5.06-2.776,6.629-1.826,1.196-3.9,1.011-5.983,1.011-2.193,0-4.385,0-6.578,0-10.922,0-21.845,0-32.767,0-5.499,0-10.997,0-16.496,0-2.337,0-4.674,0-7.011,0-2.068,0-4.412.29-6.449-.103-2.358-.455-4.242-2.264-4.829-4.586-.208-.823-.178-1.658-.178-2.499v-9.14c0-3.627,0-7.254,0-10.881,0-2.56-.214-5.083,1.398-7.29,1.37-1.876,3.552-2.912,5.851-2.954,2.571-.047,2.579-4.047,0-4-6.196.114-11.146,5.044-11.249,11.249-.036,2.2,0,4.403,0,6.603v11.71c0,2.387-.216,4.906.135,7.278.43,2.902,2.156,5.476,4.62,7.055,2.287,1.465,4.799,1.557,7.421,1.557,5.091,0,10.182,0,15.273,0,11.786,0,23.572,0,35.357,0,4.999,0,9.998,0,14.998,0,2.329,0,4.68.153,6.883-.746,2.783-1.135,4.899-3.404,5.87-6.247.514-1.506.508-3.076.508-4.648,0-2.126,0-4.251,0-6.377,0-4.088,0-8.175,0-12.263,0-3.266.208-6.464-1.428-9.413-1.409-2.54-3.843-4.461-6.618-5.297-1.679-.506-3.382-.463-5.105-.463h-66.667c-2.574,0-2.578,4,0,4Z"/>
		<path class="e" d="M331.268,8.915c-2.784,0-5.569,0-8.353,0-7.493,0-14.986,0-22.479,0h-33.417c-13.455,0-26.91,0-40.365,0-14.798,0-29.595,0-44.393,0h-44.266c-13.76,0-27.52,0-41.279,0-11.395,0-22.79,0-34.185,0h-24.077c-3.372,0-6.747-.033-10.119,0-8.425.082-15.408,5.872-17.098,14.099-2.745,13.363-5.132,26.804-7.367,40.261-1.179,7.101-2.402,14.21-3.373,21.343-.839,6.164-.602,12.248.628,18.343.65,3.218,1.499,6.396,2.399,9.551.813,2.854,1.64,5.838,3.014,8.48,2.379,4.573,7.008,7.941,12.096,8.774,2.876.471,5.892.26,8.8.26,2.818,0,5.636,0,8.453,0,7.269,0,14.538,0,21.807,0,19.784,0,39.567,0,59.351,0,25.157,0,50.313.001,75.47.002,28.51,0,57.019.002,85.529.003,14.825,0,29.65.001,44.475.002,5.855,0,12.918,1.253,16.85-4.162,1.38-1.901,1.889-4.109,1.898-6.418.036-8.863,0-17.726,0-26.589,0-14.521,0-29.041,0-43.562,0-9.688,0-19.376,0-29.063,0-.674.021-1.354-.034-2.027-.432-5.27-4.736-9.147-9.966-9.298-2.575-.074-2.573,3.926,0,4,3.456.1,5.942,2.763,6,6.178.014.84,0,1.682,0,2.522v12.165c0,13.577,0,27.155,0,40.732,0,12.401,0,24.802,0,37.203,0,2.677.022,5.355,0,8.032-.024,2.892-1.766,5.502-4.699,6.148-1.498.33-3.143.14-4.668.14-1.906,0-3.812,0-5.718,0-3.695,0-7.391,0-11.086,0-28.71-.001-57.419-.003-86.129-.004-26.239,0-52.477-.002-78.716-.002-21.932,0-43.863,0-65.795-.001-15.543,0-31.086,0-46.629,0-2.66,0-5.32,0-7.98,0-3.269,0-6.613.26-9.667-1.148-5.382-2.48-7.13-7.655-8.669-12.97-1.722-5.949-3.332-12.037-3.542-18.258-.227-6.722,1.191-13.408,2.245-20.015,1.094-6.861,2.235-13.714,3.431-20.557,1.156-6.612,2.363-13.216,3.634-19.807.609-3.161,1.216-6.323,1.872-9.474.524-2.52,1.56-4.808,3.344-6.694,2.81-2.97,6.565-4.186,10.554-4.186h4.561c6.5,0,13,0,19.5,0h30.707c12.785,0,25.569,0,38.354,0,14.317,0,28.634,0,42.95,0h43.894c13.893,0,27.787,0,41.68,0,12.05,0,24.1,0,36.15,0h27.387c5.03,0,10.06,0,15.09,0,.649,0,1.297,0,1.946,0,2.574,0,2.578-4,0-4Z"/>
		<path class="e" d="M3.174,85.911c3.091,0,6.518.429,9.402-.88,2.389-1.084,4.379-3.257,5.07-5.807.413-1.523.553-3.175.81-4.732.264-1.603.527-3.206.788-4.81,1.65-10.131,3.218-20.276,5.004-30.385,1.132-6.408,2.349-12.801,3.615-19.184.498-2.514-3.356-3.59-3.857-1.063-2.002,10.101-3.85,20.228-5.518,30.389-.806,4.911-1.588,9.826-2.381,14.739-.449,2.783-.902,5.565-1.359,8.346-.256,1.557-.503,3.117-.773,4.672-.214,1.234-.577,2.204-1.482,3.101-2.356,2.337-6.292,1.615-9.32,1.615-2.574,0-2.578,4,0,4h0Z"/>
	</g>
</svg>