<svg xmlns="http://www.w3.org/2000/svg" width="200.573" height="169.537" viewBox="0 0 200.573 169.537">
    <path d="M1695.338,278.688a6.6,6.6,0,0,0-4.681,1.909l-14.824,14.825a6.7,6.7,0,0,0,0,9.361l13.024,13.023h-44.521a7.668,7.668,0,0,0-7.6,7.6V431.243a7.667,7.667,0,0,0,7.6,7.6h18.886a8.284,8.284,0,1,0,16.4,0h13.672a8.284,8.284,0,1,0,16.4,0h54.672a8.284,8.284,0,1,0,16.4,0h13.671a8.284,8.284,0,1,0,16.4,0h18.89a7.667,7.667,0,0,0,7.6-7.6V325.4a7.668,7.668,0,0,0-7.6-7.6h-44.521l13.024-13.023a6.694,6.694,0,0,0,0-9.361L1783.389,280.6a6.694,6.694,0,0,0-9.36,0L1759.2,295.421a6.694,6.694,0,0,0,0,9.361l13.024,13.023H1701.82l13.024-13.023a6.694,6.694,0,0,0,0-9.361L1700.018,280.6A6.6,6.6,0,0,0,1695.338,278.688Zm0,8.492,12.923,12.922-12.923,12.922L1682.417,300.1Zm83.37,0L1791.63,300.1l-12.922,12.922L1765.786,300.1ZM1644.336,325.4h185.375V431.243H1644.336Zm20.988,22.168c-2.617,0-4.723,1.776-4.723,3.982v24.836c0,2.206,2.106,3.982,4.723,3.982H1691.4v-32.8Zm34.18,0v32.8h26.075c2.617,0,4.724-1.776,4.724-3.982V351.555c0-2.206-2.107-3.982-4.724-3.982Zm48.963,0c-2.617,0-4.724,1.776-4.724,3.982v24.836c0,2.206,2.107,3.982,4.724,3.982h26.075v-32.8Zm34.18,0v32.8h26.076c2.617,0,4.723-1.776,4.723-3.982V351.555c0-2.206-2.106-3.982-4.723-3.982Zm-120.679,58.768a.8.8,0,0,0-.8.8v5.241a.8.8,0,0,0,.8.8H1812.08a.8.8,0,0,0,.8-.8v-5.241a.8.8,0,0,0-.8-.8Z" transform="translate(-1636.738 -278.688)"/>
</svg>